<?xml version="1.0" encoding="UTF-8"?>
<svg fill="none" stroke-linecap="square" stroke-miterlimit="10" version="1.1" viewBox="0.0 0.0 960.0 960.0" xmlns="http://www.w3.org/2000/svg">
<clipPath id="a">
<path d="m0 0h960v960h-960v-960z"/>
</clipPath>
<g clip-path="url(#a)" fill-rule="evenodd">
<path d="m0 0h960v960h-960z" fill="#000" fill-opacity="0"/>
<path d="m268.73 612.9c-79.258-82.656-66.265-224.97 29.115-318.9 95.38-93.926 237.51-104.37 318.48-23.398z" fill="#f4f4f4"/>
<path d="m16.28 480c0-260.77 207.61-472.17 463.72-472.17 122.99 0 240.94 49.746 327.9 138.29 86.964 88.548 135.82 208.65 135.82 333.87 0 260.77-207.61 472.17-463.72 472.17-256.11 0-463.72-211.4-463.72-472.17zm109.6 0c0 200.24 158.54 362.56 354.12 362.56 195.57 0 354.12-162.32 354.12-362.56s-158.54-362.56-354.12-362.56c-195.57 0-354.12 162.32-354.12 362.56z" fill="#f4f4f4"/>
<path d="m729.07 192.7l37.857 37.857-530.37 530.37-37.857-37.857z" fill="#f4f4f4"/>
<path d="m242.66 208.67l15.969-15.969 530.37 530.37-15.969 15.969z" fill="#f4f4f4"/>
<path d="m172.8 249.83l15.969-15.969 530.37 530.37-15.969 15.969z" fill="#f4f4f4"/>
<path d="m280.46 569.7c-59.652-62.854-42.831-177.35 37.708-256.67 80.539-79.312 194.75-93.846 256.01-32.58z" fill="#32292f"/>
<path d="m333.01 549.34c-43.106-45.545-29.666-129.64 30.131-188.52 59.797-58.886 143.65-70.603 187.98-26.268z" fill="#f4f4f4"/>
<path d="m685.19 344.44c79.258 82.656 66.265 224.97-29.115 318.9-95.38 93.926-237.51 104.37-318.48 23.398z" fill="#f4f4f4"/>
<path d="m673.8 388.03c59.479 63.019 42.356 177.49-38.384 256.59-80.74 79.107-194.97 93.341-256.07 31.906z" fill="#32292f"/>
<path d="m621.41 409.1c44.347 46.722 31.895 131.79-27.914 190.69-59.809 58.897-144.66 69.652-190.2 24.108z" fill="#f4f4f4"/>
</g>
</svg>
